<?xml version="1.0" encoding="UTF-8" standalone="no"?>
<!-- Created with sK1/UniConvertor (http://sk1project.org/) -->

<svg
   xmlns:dc="http://purl.org/dc/elements/1.1/"
   xmlns:cc="http://creativecommons.org/ns#"
   xmlns:rdf="http://www.w3.org/1999/02/22-rdf-syntax-ns#"
   xmlns:svg="http://www.w3.org/2000/svg"
   xmlns="http://www.w3.org/2000/svg"
   xmlns:sodipodi="http://sodipodi.sourceforge.net/DTD/sodipodi-0.dtd"
   xmlns:inkscape="http://www.inkscape.org/namespaces/inkscape"
   width="595.276pt"
   height="750pt"
   viewBox="0 0 595.276 749.99999"
   id="svg2"
   version="1.1"
   inkscape:version="0.91 r13725"
   sodipodi:docname="old_counties_wales.svg"
   style="fill-rule:evenodd">
  <metadata
     id="metadata78">
    <rdf:RDF>
      <cc:Work
         rdf:about="">
        <dc:format>image/svg+xml</dc:format>
        <dc:type
           rdf:resource="http://purl.org/dc/dcmitype/StillImage" />
        <dc:title></dc:title>
      </cc:Work>
    </rdf:RDF>
  </metadata>
  <defs
     id="defs76" />
  <sodipodi:namedview
     pagecolor="#ffffff"
     bordercolor="#666666"
     borderopacity="1"
     objecttolerance="10"
     gridtolerance="10"
     guidetolerance="10"
     inkscape:pageopacity="0"
     inkscape:pageshadow="2"
     inkscape:window-width="1920"
     inkscape:window-height="1017"
     id="namedview74"
     showgrid="false"
     inkscape:zoom="0.45254834"
     inkscape:cx="7.3964892"
     inkscape:cy="486.69958"
     inkscape:window-x="-8"
     inkscape:window-y="-8"
     inkscape:window-maximized="1"
     inkscape:current-layer="g4" />
  <g
     id="g4"
     transform="translate(0,-91.890025)">
    <path
       style="fill:#9a9a9a;fill-opacity:1;stroke:none"
       d="m 166.86354,155.62042 0.82114,0.82115 -0.82114,-0.82115 z"
       id="path4288"
       inkscape:connector-curvature="0" />
    <path
       id="path4286"
       style="fill:#9a9a9a;fill-opacity:1;stroke:none"
       d="m 318.77707,155.62042 -1.64231,2.46346 -4.10577,0 -2.46347,2.46346 -1.6423,0 -1.64231,2.46347 -3.28462,0.82116 0,0.82114 -1.64231,0.82116 -2.46346,0.82116 -2.46347,0 0,0.82115 -2.46345,0 -2.46346,0.82116 -2.46347,1.6423 -0.82116,0.82116 -1.6423,3.28461 -6.56924,3.28463 -2.46346,0.82114 -4.10577,0 -3.28461,2.46347 -0.82116,0 -1.64231,-3.28461 -5.74808,0 -2.46347,1.6423 -1.6423,0 -0.82115,0.82115 0,0.82116 -0.82116,0.82116 -1.64231,1.6423 -4.10577,0 -2.46346,1.6423 -3.28462,4.10577 0,4.92693 -0.82115,2.46347 -1.64232,1.6423 -2.46346,0 -0.82115,1.64231 -1.6423,0 -0.82116,0.82116 -0.82116,0.82116 -0.82115,0.82114 -0.82116,4.10577 -3.28461,3.28463 0.82115,2.46346 -4.10577,0 -2.46347,1.64231 -0.82114,0.82115 -1.64232,2.46347 0.82116,5.74807 -1.64231,2.46347 -1.6423,0 -1.64232,-2.46347 0.82116,-4.92692 -2.46347,0.82115 -0.82115,2.46347 0,0.82115 0.82115,4.10577 0.82116,0 0,3.28478 0.82115,0 0,4.10577 -0.82115,0 0,2.46347 0,7.39038 -2.46346,1.64232 -0.82116,4.10577 -1.64231,1.6423 -0.82115,0 0,0.82116 -0.82115,0 -1.64232,1.64231 -0.82115,0.82116 0,1.6423 -2.46346,0.82115 -1.64231,1.64232 0,0.82114 -0.82115,0 0,0.82116 -1.64231,1.64231 -4.92693,0 -0.82116,2.46346 -2.46345,0.82116 -2.46346,3.28461 -0.82116,4.10577 -2.46347,0.82116 -0.82114,0.82115 -0.82116,0.82116 0,1.6423 -0.82116,0.82116 -0.82115,0.82116 -0.82116,0.82115 -1.6423,0 -0.82116,0.82115 -3.28461,4.10578 -2.46347,-0.82116 -1.6423,0 -3.28463,0.82116 -2.46346,-1.64231 -1.64231,1.64231 0,0.82115 -0.82114,0 0,0.82115 -1.64232,1.64231 -4.10577,0.82116 -0.82115,0.82115 0,1.64231 -1.64231,0.82116 -0.82115,3.28461 -4.10577,0 -0.82116,2.46346 -0.82116,0 -0.82115,1.64231 0,3.28462 -4.92693,3.28461 -0.82115,0.82116 0,2.46347 -1.64231,2.46346 -4.10577,0.82115 -0.82116,0.82116 -0.82115,1.6423 0.82115,4.92693 -2.46346,0.82115 -0.82115,3.28462 -2.46346,1.64231 0,4.92693 -2.46347,0.82115 0.82116,2.46346 0.82115,0.82116 0.82116,0.82115 1.6423,0 1.64231,-1.64231 2.46346,-5.74808 0.82116,0 0.82116,1.64231 5.74807,0.82116 2.46347,-2.46347 5.74807,0.82116 2.46347,-1.64232 3.28462,-5.74807 4.92692,0 2.46346,0.82116 3.28463,1.6423 1.6423,1.64231 0,0.82116 0.82116,0 0,0.82114 0.82115,0 0,0.82116 0.82116,0 0,0.82116 2.46345,1.64231 -0.82115,2.46346 0,1.64231 1.64231,2.46346 1.6423,-4.92693 6.56924,-2.46346 -4.10577,-2.46347 0.82116,-3.28461 0,-1.6423 -0.82116,-3.28463 1.6423,-2.46346 0.82116,-0.82115 3.28463,-1.64232 -0.82116,-4.10577 3.28461,-2.46346 0.82116,-0.82115 0,-1.6423 4.10577,-2.46347 3.28462,0 0,-0.82116 3.28461,0 0.82116,-3.28461 0.82115,-0.82116 1.64231,-0.82115 2.46347,-0.82115 3.28461,0 0,0.82115 2.46346,0 5.74808,0 0,-4.10577 0.82116,-0.82115 4.10577,0 0,-0.82116 6.56923,0 0,-0.82116 3.28461,0 0,-0.82115 4.10579,0 0.82114,-1.64231 0.82116,0 3.28461,0 1.64232,1.64231 1.64231,0 0,0.82115 4.92692,2.46347 4.10577,0 2.46347,-1.64231 1.6423,-4.10577 4.92693,0 0.82115,-2.46346 2.46346,-1.64231 0,-1.64232 -1.6423,-0.82115 0.82115,-2.46346 -1.64231,-1.64231 0.82116,-2.46346 0.82115,-3.28462 0,-0.82115 0,-4.10577 0,-4.92693 -1.64231,-4.92693 3.28462,-3.28461 4.92692,-1.64232 1.64232,2.46347 3.28461,0 3.28462,-4.10577 3.28461,0 0.82116,0 0.82115,0 0.82116,0 4.10577,0.82116 -0.82115,4.92693 4.10577,0.82114 3.28461,-3.28461 2.46347,0.82115 1.6423,0 4.92693,-1.64231 4.92693,4.10577 -0.82116,5.74809 2.46347,2.46345 3.28461,-0.82114 4.10578,3.28461 -0.82116,4.10577 0.82116,0.82116 1.6423,0 1.64231,-1.64231 0,-4.10577 0.82116,-0.82116 4.10577,0 3.28461,-2.46346 3.28462,0 1.64231,-4.92693 4.10577,-2.46345 0.82116,-0.82116 0.82114,-3.28463 4.10579,-5.74807 -4.92693,0 -3.28463,-3.28461 -3.28461,-0.82116 -1.6423,-2.46347 -4.92693,-2.46346 -0.82116,-2.46346 0,-1.64231 0.82116,-2.46346 -0.82116,-5.74825 1.64231,-1.6423 -0.82115,-2.46347 0,-4.92692 -2.46347,-2.46347 0,-4.10577 -3.28462,0 0.82116,-8.21154 -1.64231,-3.28462 0,-3.28461 -0.82115,0 0,-2.46347 0,-5.74807 0.82115,0 0,-3.28462 0.82115,-2.46347 3.28462,-3.28461 -2.46346,-0.82116 -0.82116,-2.46346 0,-3.28461 2.46347,-2.46347 -0.82115,-3.28462 -4.10577,-3.28461 0,-1.64231 -2.46347,-1.64231 z m -4.66521,-15.55922 2.46346,1.6423 0.82116,1.64231 3.28461,1.64232 0,3.28461 0.82116,2.46346 0.82116,0 0.82115,4.1058 2.46346,1.64231 0,1.64231 1.64231,1.6423 3.28462,-0.82115 0,-0.82115 1.64231,0 1.6423,-0.82116 1.64232,-2.46346 0.82115,-7.39042 -2.46347,-2.46345 -4.92692,0.82114 0,0.82116 -4.10577,0 -3.28462,-4.92693 -4.10577,-2.46346 z"
       inkscape:connector-curvature="0" />
    <path
       style="fill:#9a9a9a;fill-opacity:1;stroke:none"
       d="m 164.40007,159.7262 2.46347,-2.46347 -2.46347,2.46347 z"
       id="path4284"
       inkscape:connector-curvature="0" />
    <path
       style="fill:#9a9a9a;fill-opacity:1;stroke:none"
       d="m 479.72331,162.18965 0.82116,0.82116 -0.82116,-0.82116 z"
       id="path4280"
       inkscape:connector-curvature="0" />
    <path
       style="fill:#9a9a9a;fill-opacity:1;stroke:none"
       d="m 477.25985,163.01081 0.82115,0.82116 -0.82115,-0.82116 z"
       id="path4278"
       inkscape:connector-curvature="0" />
    <path
       style="fill:#9a9a9a;fill-opacity:1;stroke:none"
       d="m 168.50584,163.83197 0,0.82114 4.10577,2.46347 -4.10577,-3.28461 z"
       id="path4276"
       inkscape:connector-curvature="0" />
    <path
       style="fill:#9a9a9a;fill-opacity:1;stroke:none"
       d="m 479.44987,170.67465 0.54688,0.27426 -0.54688,-0.27426 z"
       id="path4274"
       inkscape:connector-curvature="0" />
    <path
       style="fill:#9a9a9a;fill-opacity:1;stroke:none"
       d="m 427.16944,172.86466 2.46346,-1.64231 -2.46346,1.64231 z"
       id="path4272"
       inkscape:connector-curvature="0" />
    <path
       style="fill:#9a9a9a;fill-opacity:1;stroke:none"
       d="m 326.16746,172.04351 0.82115,0.82115 -0.82115,-0.82115 z"
       id="path4268"
       inkscape:connector-curvature="0" />
    <path
       style="fill:#9a9a9a;fill-opacity:1;stroke:none"
       d="m 478.081,174.50697 0.82115,0.82115 -0.82115,-0.82115 z"
       id="path4266"
       inkscape:connector-curvature="0" />
    <path
       style="fill:#9a9a9a;fill-opacity:1;stroke:none"
       d="m 258.01166,176.14928 -0.82116,1.6423 0.82116,-1.6423 z"
       id="path4264"
       inkscape:connector-curvature="0" />
    <path
       style="fill:#9a9a9a;fill-opacity:1;stroke:none"
       d="m 247.33664,182.71851 -2.46345,4.10577 2.46345,-4.10577 z"
       id="path4262"
       inkscape:connector-curvature="0" />
    <path
       id="path4258"
       style="fill:#9a9a9a;fill-opacity:1;stroke:none"
       d="m 324.52515,190.1089 1.64231,3.28461 -0.82115,4.92693 4.10577,3.28461 -0.82116,-4.10577 4.10577,0 -1.64231,-1.6423 -0.82115,-4.10577 -5.74808,-1.64231 z m 1.64231,-30.3827 1.64231,3.28461 0,1.6423 -0.82116,2.46347 0.82116,0 1.64231,-2.46347 -0.82116,-3.28461 -2.46346,-1.6423 z m 12.31732,-9.98661 -0.82116,2.46346 0,4.92695 -1.64231,2.46347 -2.46346,0.82116 -3.28462,2.46345 0,4.10578 -3.28462,2.46345 2.46347,4.10577 0,4.10579 -2.46347,1.6423 -1.6423,3.28461 -0.82116,2.46346 0,3.28463 2.46346,0.82114 4.92693,0 0.82115,4.92693 2.46346,0.82116 0,1.64231 0.82116,0.82116 3.28461,0 0,0.82114 3.28463,0 2.46346,4.92693 -2.46346,2.46347 -3.28463,-0.82116 -0.82114,-3.28461 -1.64232,1.6423 -4.10577,-0.82116 -3.28461,1.64232 0,5.74808 2.46346,1.6423 0,5.74809 0.82115,0 0,5.74807 -0.82115,0 -0.82116,4.10594 0,0.82116 0.82116,4.92692 1.64231,2.46346 2.46346,0.82116 0,0.82115 1.64231,0 0,0.82115 1.6423,0 0,0.82116 1.64232,0 0.82115,2.46347 2.46346,0.82114 4.10577,0 2.46347,2.46347 0,2.46346 -0.82116,0.82116 -1.64231,0.82115 -0.82114,0.82116 0,1.6423 -1.64232,0.82116 0,1.64231 -1.64231,0.82116 0,1.6423 -0.82116,0.82115 -2.46345,0.82116 -0.82116,0.82116 0,1.6423 -1.6423,0.82116 -1.64232,3.28461 -2.46345,0 -0.82116,1.64231 -6.56924,1.6423 -2.46346,4.10578 0,4.10577 4.10577,0.82115 1.64231,-2.46346 5.74808,-0.82115 0.82115,-2.46346 1.64232,-1.64231 0.82114,0 0,-0.82116 0.82116,0 1.64231,-2.46346 4.10577,-0.82115 1.64232,-1.64232 5.74807,0 1.64231,-4.10577 3.28462,0.82116 3.28461,-3.28462 3.28462,0 2.46346,-2.46345 4.92693,0 0.82115,0.82114 -1.6423,4.10577 1.6423,4.10577 0.82115,6.56924 5.74809,0 3.28461,0 1.64232,-1.64231 2.46345,0.82116 4.92693,0.82115 4.10577,-1.64231 1.64232,-3.28461 2.46345,-0.82116 0,-5.74807 -1.64231,-1.64232 -0.82114,-0.82115 -1.64232,0 -0.82115,-4.92693 -2.46346,-2.46346 0,-3.28461 1.6423,-1.64232 2.46347,-0.82115 4.92693,0 3.28461,-2.46346 2.46346,0.82116 0.82116,2.46345 -0.82116,3.28462 4.10577,-0.82116 1.64231,-1.6423 3.28462,0 0,-0.82116 4.92693,-0.82115 0,4.92693 0,0.82115 0.82115,2.46346 1.64231,1.64231 1.64231,0 0.82115,0.82116 0.82116,4.92693 2.46346,-1.64232 4.10577,0 1.64231,1.64232 0,0.82114 0.82115,0 0,0.82116 1.64231,0.82116 1.64231,5.74808 3.28462,-2.46347 3.28461,0.82116 5.74809,4.10577 0,2.46346 -0.82116,0.82115 -4.10577,2.46347 0.82116,4.10577 -2.46347,1.6423 -3.28462,0 -0.82115,0 -0.82116,0 -0.82115,0 -3.28462,0 0,0.82116 -4.92692,-0.82116 -0.82115,4.10578 -2.46347,0.82115 -0.82115,1.64231 -1.64231,0 -2.46346,2.46346 -0.82116,5.74809 -3.28461,0.82114 0,3.28463 -0.82116,0 0,3.28461 -1.64231,2.46346 -0.82116,0 -0.82114,3.28463 2.46346,1.6423 1.64231,0 1.6423,2.46347 2.46347,0 0.82115,1.6423 3.28462,0.82116 0.82115,1.64231 1.64231,0 0.82116,1.6423 1.6423,0 1.64231,1.64231 0,0.82116 0.82116,0 0,0.82115 4.10577,4.10577 0,4.10577 1.6423,0.82116 0,0.82115 -0.82115,3.28462 5.74808,0 1.64231,-2.46346 5.74807,-2.46347 4.10577,-2.46346 3.28463,0.82116 0,-5.74809 2.46346,-2.46346 0.82115,-4.10577 -1.64231,-3.28461 1.64231,-2.46347 1.64232,0 2.46346,-3.28462 -2.46346,-0.82115 -0.82116,-0.82116 -0.82116,-1.6423 0.82116,-2.46347 0,-3.28461 1.6423,-1.64232 4.92693,0 0.82116,-2.46346 0,-4.92692 4.10577,-5.74808 2.46346,1.64231 3.28462,0 0.82115,0 0.82115,0 0.82116,0 4.10577,0 0.82116,-2.46346 0.82115,0 0,-1.64232 0.82115,0 0,-1.6423 2.46347,-1.64231 0,-2.46346 0.82116,-0.82116 4.92691,-0.82115 1.64232,-3.28462 -2.46346,-4.10577 4.92691,0.82116 2.46347,-4.92693 2.46346,0 1.64231,-2.46347 3.28462,-0.82114 0,-3.28463 5.74808,-1.6423 0,-1.64231 2.46346,0 1.64231,-4.92693 -0.82115,-2.46346 0,-0.82116 0.82115,-3.28461 -0.82115,0 0,-3.28462 -1.64232,-1.64231 0,-4.10577 -1.6423,-1.64231 -0.82115,-0.82115 -1.64232,0 0,-4.92709 1.64232,-2.46346 -4.10578,0 -3.28461,-3.28462 -3.28461,0 -0.82116,-2.46347 -2.46347,-0.82115 -6.56923,0.82115 -1.64231,5.74809 -2.46346,0.82115 -1.64231,1.64231 0,4.10594 -4.10577,2.46345 -6.56923,-0.82115 -1.64232,2.46347 -1.6423,0 0,0.82115 -1.64231,0 -1.64231,2.46346 -8.21155,0.82116 -0.82114,3.28461 -0.82116,0.82116 -0.82116,0.82116 -4.92692,0 -3.28462,-1.64232 -0.82115,-0.82115 0,-2.46346 -3.28462,-0.82116 0.82116,-3.28461 0.82114,0 0.82116,-0.82116 0,-1.64231 2.46347,-0.82115 2.46346,0 0,-0.82115 4.92692,0 0.82116,-3.28479 -4.92693,-1.64231 -0.82115,-2.46346 0,-4.10577 -0.82116,0 0,-3.28462 -1.6423,-1.64231 0.82114,-4.10577 -1.6423,-1.6423 -2.46347,0.82114 -5.74807,0 -3.28462,0.82116 0,-0.82116 -4.10577,0 -3.28462,-5.74807 0.82115,-4.92693 -1.6423,-2.46347 -4.92692,-2.46345 -1.64232,-4.10578 -1.6423,-4.10577 0.82115,-2.46346 2.46347,-0.82115 -0.82116,-3.28462 -1.64231,1.64232 -0.82115,0.82114 -2.46347,1.64231 0,2.46346 -0.82115,0.82116 -2.46346,2.46346 -4.92693,0 -2.46346,-4.92692 -2.46347,-0.82116 -2.46346,-4.92692 -5.74808,0 0,-1.64232 -2.46346,-0.82114 -3.28461,1.6423 -0.82116,-2.46346 -3.28462,0 -0.82115,0 -0.82116,0 -0.82115,0 -5.74809,0 0,-3.28461 0,-0.82116 0,-0.82115 0,-0.82116 0,-4.92693 0.82116,-2.46346 3.28462,-1.64231 0.82115,-4.10577 0,-0.82118 -0.82115,-2.46346 -3.28462,2.46346 -4.10577,0.82118 0,0.82116 -1.64231,0.82115 -2.46346,0 -2.46346,2.46346 -3.28462,0 -2.46347,1.64231 -3.28461,0 -1.64231,-1.64231 -4.10577,0 0,0.82116 -4.10578,0 0,-0.82116 -2.46345,0 -8.21155,0 -4.10577,-3.28461 -0.82115,-4.1058 -2.46346,0 z"
       inkscape:connector-curvature="0" />
    <path
       style="fill:#9a9a9a;fill-opacity:1;stroke:none"
       d="m 242.40973,193.39351 0.82114,0.82116 -0.82114,-0.82116 z"
       id="path4254"
       inkscape:connector-curvature="0" />
    <path
       id="path4252"
       style="fill:#9a9a9a;fill-opacity:1;stroke:none"
       d="m 238.30396,195.85698 -2.46347,1.6423 -1.64232,1.64231 0,0.82116 -0.82114,0 0,0.82116 -0.82116,0 0,0.82114 -0.82115,0 0,0.82116 -0.82116,0 0,0.82116 -0.82116,0 0,0.82115 -0.82114,0 0,0.82116 -0.82116,0 0,0.82114 -1.64231,1.64232 -2.46346,0.82115 -3.28461,0 -2.46347,-1.64231 -1.64231,5.74808 3.28462,0.82116 1.6423,2.46346 -1.6423,4.10577 0,0.82116 1.6423,2.46346 0.82116,0 0,-7.39039 1.64231,-3.28462 2.46346,-2.46346 4.10577,-0.82115 1.64231,-5.74808 1.6423,-1.64232 0.82116,0 0,-0.82114 0.82116,0 0,-0.82116 0.82115,0 0,-0.82116 0.82116,0 2.46346,-3.28461 -1.6423,0 z m -32.02503,-2.46347 -4.10577,5.74808 5.74809,-1.64231 0,-4.10577 -1.64232,0 z m -58.30195,-46.80581 -2.46346,5.7481 2.46346,0.82116 -0.82115,4.10577 2.46346,0.82115 1.64231,-1.64231 5.74808,2.46347 4.10577,0.82116 -0.82115,2.46345 0,2.46346 0,0.82116 1.64231,1.64231 0,4.10577 0.82115,0.82116 1.64231,0 2.46347,0 1.6423,0 1.64231,-3.28463 -4.10577,-1.6423 0.82116,-4.10577 -4.10578,0 -1.64231,-3.28461 0.82116,-3.28463 2.46346,-3.28461 -4.10577,0 -3.28462,-2.46349 -0.82116,-2.46346 -4.10577,-1.64231 -4.10577,0 z m 49.26925,-37.46565 -1.6423,4.92693 -2.46347,-0.82116 -0.82114,0 -4.92693,0 -2.46347,2.46346 -5.74807,-0.82116 -0.82116,2.46346 -4.10577,0 0,0.82116 -4.10577,-0.82116 1.6423,3.28463 0,4.10577 2.46347,1.6423 -1.64231,2.46347 0,4.92692 -1.6423,2.46344 -1.64232,5.74808 2.46346,4.10577 0,4.92693 5.74808,-1.64232 -0.82115,2.46347 -4.10577,1.64234 -0.82116,3.28461 -2.46346,0.82116 -0.82115,3.28461 2.46347,0 0.82114,2.46346 0.82116,0 0.82116,1.64231 0,3.28462 1.64231,0.82116 0,3.28461 6.56923,3.28462 -0.82116,4.10577 3.28461,2.46346 1.64232,3.28462 -1.64232,5.74807 2.46347,0.82116 0.82116,2.46347 5.74807,-2.46347 -0.82114,2.46347 1.6423,3.28461 2.46347,4.10577 1.6423,-1.64231 0.82116,0 0,-0.82115 0.82115,0 1.64231,-1.64231 0,-2.46347 0.82115,-0.82114 2.46347,-2.46347 4.92692,-1.6423 0.82115,-1.64232 1.64232,0 0.82115,-1.64231 1.64231,0 0.82115,-1.6423 1.64231,0 1.64231,-1.64231 0,-0.82115 0.82115,0 0,-0.82116 1.64232,-0.82115 0.82114,-0.82116 1.64231,-1.6423 -1.64231,4.10577 -1.6423,1.6423 -0.82116,0 0,0.82116 -0.82115,0 -0.82116,1.6423 -3.28461,0.82116 -0.82116,1.64231 -1.6423,0 -2.46347,2.46346 0,7.39039 -1.6423,1.64231 -2.46347,-0.82116 -3.28462,1.64231 1.64231,4.92693 2.46346,0.82115 2.46347,0 0.82115,0 3.28462,3.28462 1.64231,0 1.64231,-1.64231 0,-3.28461 3.28461,-4.92693 0.82116,0 -0.82116,4.10577 2.46346,1.64231 2.46347,0 1.6423,-0.82115 3.28463,-3.28462 0,-1.64231 0.82114,-0.82116 2.46347,-0.82115 0.82116,-2.46346 3.28461,-2.46346 4.10577,-0.82116 0.82116,-2.46347 0,-2.46346 0,-0.82115 1.6423,-4.10577 1.64232,-1.64231 4.10577,-0.82115 1.64231,-2.46346 3.28461,0 0.82116,-3.28462 3.28462,-2.46346 1.6423,0 0.82115,-0.82116 0.82116,-1.6423 0.82116,-0.82116 1.6423,0 2.46347,-1.64231 1.6423,-1.6423 0.82116,-4.92693 2.46347,-1.64231 3.28461,-5.74809 1.64231,-4.92695 -2.46347,1.64232 -0.82115,0 -1.6423,-1.64232 -3.28463,0 0,-0.82114 c -3.82985,0.0345 -6.93382,0.0608 -8.21154,4.10579 l -2.46346,0.82116 -4.10577,0 -1.64231,1.6423 -2.46346,0.82116 -2.46346,0 -2.46347,0.82115 -0.82116,-2.46347 0,-2.46348 0.82116,-3.28461 -3.28462,-1.64232 0,-3.28461 -2.46345,-3.28462 0,-6.56921 -4.92693,0 -2.46347,-4.92692 -3.28461,1.6423 3.28461,-7.39038 0,-3.28462 -2.46346,-4.10577 -0.82115,-0.82116 -1.64232,-0.82114 -3.28461,0 0,-0.82116 -3.28462,0.82116 -1.64231,0 -4.92692,0 -2.46347,-3.28463 -5.74807,1.64231 -0.82116,0 -1.64231,-2.46345 -4.92693,-0.82116 z"
       inkscape:connector-curvature="0" />
    <path
       style="fill:#9a9a9a;fill-opacity:1;stroke:none"
       d="m 341.22169,200.51046 0.27425,0.54689 -0.27425,-0.54689 z"
       id="path4250"
       inkscape:connector-curvature="0" />
    <path
       style="fill:#9a9a9a;fill-opacity:1;stroke:none"
       d="m 403.35596,243.48409 -8.21154,1.6423 0.82115,2.46347 2.46346,1.6423 -0.82114,3.28463 2.46345,2.46346 4.92693,0.82115 -1.64231,2.46346 -0.82116,2.46347 0,4.10577 -2.46346,0.82116 -3.28461,4.92692 -3.28462,0 -3.28462,2.46346 -0.82115,-2.46346 -4.92692,-0.82115 -1.64232,1.6423 -3.28461,0 -0.82116,0 -0.82115,0 -0.82116,0 -4.10577,0 -1.6423,-1.6423 -0.82116,-2.46347 c -0.16176,-2.93069 -0.37937,-4.72738 -3.28462,-5.74807 l 2.46346,-5.74809 -3.28461,0.82116 -0.82116,1.6423 -2.46346,0 -2.46346,1.64232 0,0.82115 -1.64231,0.82116 -3.28461,0 -1.64231,3.28461 -5.74809,0 -2.46346,0.82116 -3.28461,1.6423 -1.64231,1.64231 0,0.82116 -0.82116,0 0,0.82115 -2.46346,3.28462 -0.82116,0.82115 -1.64231,0.82115 -4.10577,0 -2.46346,2.46347 -4.92693,-0.82115 -0.82115,-0.82116 0,-1.64231 -0.82115,-0.82115 -2.46347,-0.82116 -1.6423,-3.28461 0.82115,-4.10577 -2.46346,-0.82116 -3.28462,0 -2.46347,-1.64231 0,-0.82116 -0.82114,-0.82114 -1.64231,0 0.82115,-2.46347 0,-4.10577 -0.82115,-0.82116 -3.28462,-0.82114 -1.64231,0 -0.82116,0.82114 -4.10577,0 -2.46346,3.28463 -6.56924,-1.64232 -0.82114,-4.92692 -4.10577,-0.82116 -4.10578,2.46347 -0.82115,2.46346 -4.10577,1.64231 -4.10577,-0.82116 1.6423,-2.46345 -4.10577,1.6423 0,4.10577 0.82115,0 -0.82115,6.56924 0.82115,4.92692 -1.64231,3.28462 3.28463,2.46346 0,4.10577 -1.64232,3.28462 -2.46346,4.92692 4.10578,-3.28461 3.28461,0 3.28462,-1.64231 0.82115,-1.64231 1.64231,0 0,-0.82115 1.64231,0 1.64231,-1.64232 2.46346,0 4.10577,-1.6423 -3.28462,3.28462 -6.56923,1.64231 -2.46346,2.46346 -0.82116,3.28461 -0.82115,0.82116 -3.28462,1.64231 0,3.28462 -0.82115,0.82115 -4.10578,0 0,0.82115 -2.46346,0 -6.56923,0 0,4.92693 3.28462,2.46347 0.82115,2.46345 0,2.46346 0.82115,0 -0.82115,9.85386 2.46346,0 -0.82115,2.46347 -0.82116,0.82114 -0.82115,0.82116 -3.28462,0.82116 -0.82115,0.82115 -0.82115,1.6423 1.6423,4.92693 1.64231,0.82116 0,1.64231 2.46346,1.6423 0,1.64231 1.64231,0.82116 0,1.6423 0.82116,0.82116 1.6423,0.82116 0.82116,0.82115 0,1.6423 1.64231,0.82116 0,1.64231 2.46346,2.46346 0,3.28462 1.64231,3.28461 1.64231,2.46347 3.28462,0 2.46346,-1.64231 1.64231,-2.46346 3.28461,-0.82116 0,-0.82115 1.64232,0 0,-0.82116 1.6423,0 0,-0.82115 1.64231,0 0,-0.82115 1.6423,-0.82116 2.46347,-0.82115 2.46346,0 0,-0.82116 2.46347,0 0,-0.82115 4.10577,0 0,-0.82115 4.10577,2.46346 -7.39038,0 -1.64232,1.64231 -1.64231,0 0,0.82115 -1.6423,0 -0.82116,1.64231 -1.64231,0 -1.6423,1.64231 0,0.82116 -0.82116,0 0,0.82114 -0.82115,0 0,0.82116 -0.82116,0 0,0.82115 -0.82116,0 0,0.82116 -0.82114,0 0,0.82116 -2.46347,2.46346 -3.28462,0 -1.64231,2.46345 -3.28461,0.82116 0,6.56924 -1.64231,1.6423 -0.82115,0 0,0.82116 -0.82116,0 0,0.82116 -0.82116,0 0,0.82115 -0.82115,0 -0.82115,1.6423 -0.82115,0.82116 -1.64232,0 -1.64231,2.46347 -0.82115,3.28461 -0.82115,0 0,1.64231 -1.64231,1.64231 0,3.28461 -0.82116,0 0,3.28462 -0.82115,0 1.64231,5.74808 2.46346,0.82116 0.82115,0 4.10578,-1.64231 0.82115,3.28462 -6.56923,0 0.82115,4.10577 1.64231,1.64231 0,1.64231 0.82115,0 0,1.6423 0.82116,0 0,1.64231 1.64231,1.64231 0,2.46346 2.46346,4.10577 8.21154,0 2.46346,-0.82115 1.64231,-1.6423 2.46346,0 1.64232,-1.64232 2.46345,-0.82115 3.28463,0 0,-0.82116 5.74807,1.64231 -1.6423,-4.92692 3.28461,-3.28462 6.56923,0 2.46347,-4.92693 2.46346,-0.82115 0,-1.6423 2.46347,-0.82116 0.82115,-4.10577 -0.82115,0 0,-2.46347 0.82115,-2.46346 1.64231,-1.64231 0,-0.82115 -1.64231,-0.82115 0.82115,-4.92693 3.28462,-3.28462 0,-1.64231 1.64231,-2.46346 2.46346,-0.82115 0.82116,-2.46346 2.46346,0.82114 0.82115,1.64232 0.82116,0.82115 4.10577,0 2.46347,-0.82115 1.6423,-3.28462 4.92693,1.6423 0.82115,0 2.46346,-0.82114 1.64231,-2.46347 1.64232,0 1.6423,-2.46346 2.46347,0.82116 4.10577,0 0.82115,-1.64232 0.82115,0 4.10577,0 3.28462,-2.46347 0,-4.10577 3.28462,-4.92691 0,-5.74809 -0.82115,0 0,-2.46346 0,-6.56924 -0.82116,-2.46346 -2.46346,-0.82115 0,-4.92693 2.46346,-2.46346 0,-4.10577 2.46346,-4.92693 4.10577,0.82116 0.82116,-2.46347 3.28461,-1.6423 3.28463,-0.82116 2.46345,0 2.46347,0.82116 3.28462,-2.46347 0,-4.92693 1.6423,-3.28461 2.46347,0.82115 4.10577,0 0,0.82116 4.92693,0 2.46346,-4.10577 3.28461,0 2.46347,-0.82116 1.6423,-1.64231 0.82116,-2.46346 0,-3.28461 4.10577,-3.28462 0,-5.74808 3.28462,0 2.46346,-1.64231 2.46346,-3.28462 0,-2.46346 1.64232,-1.64231 3.28461,1.64231 2.46346,-0.82115 8.21154,-0.82116 -0.82115,-3.28462 4.10578,-2.46346 -4.10578,-4.10578 -0.82115,2.46347 -2.46347,-0.82115 -3.28462,0.82115 0,-4.10577 -1.6423,-3.28461 -2.46347,-3.28463 -3.28461,1.64232 -4.10577,0 -0.82116,-0.82116 0,-4.10577 -2.46346,-0.82116 -2.46347,-3.28461 -0.82114,-5.74809 -4.10577,0.82116 -2.46347,0.82116 -3.28462,0.82115 -0.82115,3.28462 -3.28462,0 -0.82115,-2.46346 0,-2.46347 0.82115,-2.46346 -1.64231,0 z"
       id="path4248"
       inkscape:connector-curvature="0" />
    <path
       id="path4246"
       style="fill:#9a9a9a;fill-opacity:1;stroke:none"
       d="m 523.24449,252.51679 -3.28463,3.28461 -4.92691,0.82116 0.82114,3.28462 -5.74807,0.82115 0,0.82116 2.46346,0 1.64231,2.46346 0,0.82115 -1.64231,1.6423 -4.10577,-0.82114 -2.46346,-2.46347 -0.82116,2.46347 0.82116,4.92692 -1.64231,1.64231 0,1.64231 0.82115,1.6423 0.82116,0.82116 1.6423,0 0.82116,1.64231 1.64231,0.82115 0.82116,0 4.10577,0 0.82114,-3.28462 4.92693,-0.82115 0.82116,2.46347 6.56924,0 2.46346,1.6423 -0.82116,2.46347 2.46347,1.64231 0.82114,3.28461 3.28463,2.46346 0,2.46347 1.6423,1.6423 0.82116,0 0.82115,-1.6423 0.82116,0 0,-0.82115 0.82115,0 0,-0.82116 0.82115,0 0,-0.82116 0.82116,0 2.46346,-4.10577 6.56924,0 -0.82116,-3.28461 0.82116,-3.28462 0,-3.28462 0,-0.82115 -1.64231,-2.46347 0.82115,-5.74807 -2.46346,-0.82116 -2.46347,0 -1.6423,0 -0.82115,-2.46347 -3.28462,0 -4.10577,1.64232 -1.64231,-1.64232 -3.28462,0 -1.64231,-1.6423 -1.6423,-6.56924 -3.28463,-1.6423 -1.6423,0 z m -83.2808,-67.67903 0,2.46346 0.82116,0 3.28461,-0.82116 0,-0.82115 -4.10577,-0.82115 z m -16.29481,-50.86822 -1.6419,1.64189 -2.46286,0.82096 -3.28553,0 -2.46285,0.82095 0,0.82095 -2.46285,0 0,0.82095 -2.46459,0 -2.46285,1.64363 0,0.82095 -1.64191,0.82096 -3.28552,0 0,0.82095 -4.10476,0 -3.28554,2.46286 -1.64189,2.46456 0.82095,3.28382 2.46284,2.46285 1.64364,0 0.82095,0.82268 0.82095,0.82095 0.82095,0.82095 0,1.64189 1.64191,2.46287 -1.64191,-1.64191 -0.82095,0 0,-0.82096 -0.82095,0 0,-0.82095 -0.82095,0 0,-0.82094 -0.82096,0 -3.28552,-2.46458 -0.82095,3.28552 -3.28553,1.64191 -1.64191,2.46458 0.82096,2.46286 0,4.92743 3.28552,0 0.82096,0 0.82095,0 0.82094,0 4.92744,1.6419 0.82095,0 0.82095,-1.6419 1.64191,0 0.82095,0.82095 0.82268,0.82095 0.82094,2.46286 5.74839,-0.82095 3.28381,5.74839 2.46285,0 0.82095,0.82095 0.82267,4.10647 2.46287,-0.82267 0.82095,-0.82095 0,-1.64191 1.6419,-0.82094 0,-1.6419 0.82095,0 0.82268,-3.28554 -1.64363,-3.28381 3.28552,-1.6419 5.74839,0.82095 -0.82267,4.10476 2.46458,4.92744 -2.46458,1.64189 0,4.92745 5.74837,5.74837 0.82096,-2.46458 0,-4.92571 0.82268,-0.82095 4.92571,0 3.28552,1.64191 0,4.10475 -4.10647,0.82268 -0.82096,0.82095 -2.46285,4.10477 0,6.56932 3.28381,2.46459 9.03219,-1.64364 7.39028,1.64364 -0.82095,2.46285 0,0.82096 0.82095,1.64189 0,5.74839 1.64363,0.82095 0,0.82096 0.82096,4.92743 4.92743,1.6419 0,5.74839 -1.64363,1.6419 -2.46285,0.82267 -3.28554,-0.82267 -4.10475,1.64362 0,0.82095 4.10475,-0.82095 1.64363,1.64191 0,1.64191 -2.46458,2.46285 4.10649,0 0.82095,-2.46285 1.6419,-0.82095 0.82096,-2.46287 2.46456,0.82095 4.10477,0 4.10648,-2.46457 3.28382,-3.2838 3.28551,0.82095 1.64191,0 2.46285,-0.82095 1.64364,-4.10649 2.46284,-0.82095 1.64191,-2.46286 0.82095,-4.10648 1.64363,-2.46285 5.74665,-0.82095 0,-3.28554 -3.28379,-0.82094 -1.64191,-4.10476 4.9257,-0.82268 3.28554,-3.28381 5.74837,-0.82095 0.62649,-1.56618 0.0654,0.0138 -0.0517,-0.0517 1.00167,-2.50244 -3.4129,0 0,-0.73146 -1.64363,-0.82095 -0.82095,-3.28382 -2.46285,-0.82095 -3.28553,-4.10647 -1.64191,0 -0.82096,-0.82095 -0.82095,-0.82095 -1.64189,-3.28553 -3.28553,-0.82095 -0.82095,-1.64191 -2.46287,-1.6419 -4.10647,0 -2.46285,2.46286 0.51287,2.56439 -0.3838,-0.19104 -0.82095,-1.6419 -1.64361,0 -1.64192,-2.46286 -4.10476,-0.82095 -1.64362,-2.46457 -1.6419,0 -0.82096,-0.82095 -2.46285,-3.28381 -1.64362,0 -1.64191,-2.46459 -1.6419,0 -0.82095,-0.82095 -1.64192,-1.64189 0,-0.82095 -0.82267,0 0,-0.82096 -0.82095,0 0,-0.82095 -0.82094,0 0,-0.82267 -0.82095,0 -0.82096,-0.82096 0,-1.64191 -1.6419,0 -0.82095,-2.46285 -2.46459,-1.64362 -4.9257,-1.6419 -2.46458,-3.28382 -1.64191,0 -0.82095,-1.6419 -4.10649,-0.82267 -0.82094,-2.46286 -2.46285,-0.82094 -1.64191,-1.64191 0,-0.82095 -0.82267,0 0,-0.82268 -1.6419,-0.82095 0,-4.92571 -5.74839,0 z"
       inkscape:connector-curvature="0" />
    <path
       style="fill:#9a9a9a;fill-opacity:1;stroke:none"
       d="m 271.15013,287.82642 0.82115,1.64231 0.82115,0 0.82115,-1.64231 -2.46345,0 z"
       id="path4240"
       inkscape:connector-curvature="0" />
    <path
       style="fill:#9a9a9a;fill-opacity:1;stroke:none"
       d="m 409.9252,305.07066 -3.28463,4.10577 -3.28461,0.82116 -2.46346,0 0,-0.82116 -4.92693,-0.82116 -0.82115,4.92693 -1.64231,2.46347 -0.82115,0.82116 -2.46347,1.6423 -3.28462,-0.82116 -1.64231,0 -4.92692,1.64231 -0.82115,0.82116 -1.64231,3.28462 -3.28462,-0.82116 -1.64231,2.46347 0,4.10577 -2.46346,1.6423 0,2.46347 2.46346,1.6423 0.82115,2.46347 0,3.28462 0.82116,0 -0.82116,3.28461 0,2.46346 0.82116,0 0.82116,7.3904 -1.64232,2.46345 -1.6423,0.82116 -0.82115,1.6423 0,5.74809 -2.46347,0.82115 -0.82115,1.64232 -0.82116,0.82114 -5.74808,0 -0.82115,1.64231 -0.82115,0 -5.74808,0 0.82115,4.10578 -4.10577,0 -1.64231,3.28461 -0.82116,0 -0.82114,-2.46346 -6.56924,-0.82115 -1.64232,3.28461 -8.21154,0 -3.28461,-1.6423 -0.82116,2.46346 -3.28462,2.46346 0,1.64231 -1.6423,0.82115 1.6423,7.39039 -2.46345,0.82116 0.82115,2.46346 0,8.21154 -4.92693,0.82115 -1.64231,2.46347 0,1.64231 -3.28461,4.10577 c -3.40698,-0.55182 -5.4188,-0.56003 -7.39039,2.46346 l 3.28462,0 0.82115,0 0.82116,0 0.82114,0 0.82116,0 0.82116,0 0.82115,0 0.82116,0 4.10577,0 2.46346,1.64231 0.82116,0.82115 0.82115,1.64232 0,4.92691 0.82115,0 0,5.74809 -1.6423,1.64231 1.6423,4.10577 0,3.28462 2.46347,4.10577 3.28461,0 0.82116,-2.46346 4.92693,0 0.82114,-3.28463 3.28463,-0.82114 1.6423,-2.46347 3.28461,0 1.64232,1.64231 0,4.10577 -2.46346,0.82116 1.6423,1.6423 0,0.82116 -1.6423,0.82115 0,3.28462 -1.64231,1.64231 -4.10578,0 0.82116,5.74807 -0.82116,0 0,3.28462 2.46346,0.82116 1.64232,2.46346 4.10577,1.64231 0,3.28461 4.10577,2.46347 0,4.10577 0.82115,0 0,4.10577 0.82116,0 1.6423,6.56923 2.46347,0 0.82116,0.82116 0,1.64231 3.28461,1.6423 3.28462,-4.10577 4.92692,0 4.10578,2.46347 0,-3.28461 4.92692,-0.82116 0.82115,-4.10577 2.46347,-0.82116 0.82115,-2.46347 2.46346,-0.82114 0.82116,-3.28463 4.10577,0 0,-0.82114 4.92693,0.82114 0.82115,0.82116 0,1.64231 1.64231,2.46346 4.10577,-0.82116 2.46347,-3.28461 2.46346,0 0.82115,-0.82116 0.82116,-2.46346 1.6423,-0.82115 0,-1.6423 0.82116,0 0.82115,-4.10578 2.46346,-2.46346 2.46347,-1.64231 3.28462,0 0,-0.82115 3.28461,0 4.92693,2.46346 0.82115,-2.46346 4.92693,0 2.46346,-1.64232 0.82116,-2.46345 4.92692,-2.46347 4.92692,0 4.10577,3.28462 2.46347,-4.92693 2.46346,-0.82115 0,-0.82116 1.64231,-0.82115 4.10577,0 1.64232,-2.46346 3.28461,-0.82116 1.6423,-2.46346 4.10577,0 3.28463,-3.28461 4.10577,0.82114 2.46346,0 0,-0.82114 7.39039,0.82114 0.82115,-2.46346 -0.82115,-2.46345 1.64231,-4.10579 5.74807,0.82116 -0.82114,-3.28461 1.6423,-1.64232 0.82115,-3.28461 0,-1.6423 -0.82115,-0.82116 0,-4.10577 -1.6423,-1.64231 -4.92693,0.82115 -1.64231,1.64231 0,1.64231 -0.82116,0.82115 -2.46346,0.82116 0,0.82116 -1.64231,0 0,0.82114 -1.6423,0 -1.64232,0.82116 1.64232,2.46347 0,2.46346 -0.82116,0.82115 -2.46346,1.6423 -4.10577,0 0,0.82116 -6.56924,0 0,-4.10577 4.92693,-2.46346 -0.82116,-3.28461 -0.82116,0 0,-1.64232 -0.82114,0 0,-1.64231 -0.82116,0 -1.64231,-2.46346 0,-7.39038 4.92693,0 4.92692,-4.10577 -0.82115,-4.10578 2.46346,-1.64231 0,-2.46346 3.28462,-3.28462 -4.10577,-0.82115 0.82115,-2.46347 2.46347,-1.6423 2.46345,0 2.46347,-2.46347 -0.82115,-3.28461 1.6423,-1.64232 0,-4.10577 0,-1.6423 -0.82115,-3.28461 2.46346,-0.82116 0,-2.46347 1.64231,0 0,-4.92693 1.64231,-3.28461 2.46347,0.82115 4.92691,0 -2.46346,-2.46345 0,-3.28463 -1.64231,-1.6423 -4.10577,-3.28462 2.46347,-2.46347 -3.28462,0 -2.46346,0.82116 -2.46346,-2.46346 -4.92693,0.82115 -3.28462,-3.28462 0,-4.92692 -5.74808,3.28462 -2.46346,-2.46347 -4.10577,0 -2.46347,-1.6423 -0.82114,-3.28462 -3.28463,0 -2.46346,0.82115 -0.82115,2.46347 -5.74809,0.82115 -1.6423,2.46346 -7.39039,0 -2.46347,-0.82115 -1.6423,-1.64231 1.6423,-1.64231 -0.82115,-4.92692 -1.6423,-0.82116 0,-2.46346 -1.64232,-1.64231 -0.82115,0 0,-0.82116 -0.82115,0 -1.64231,-2.46346 -1.64231,0 -0.82115,-1.64231 -1.64231,0 -0.82116,-1.6423 -1.6423,0 -0.82116,-1.64231 -3.28461,0 -2.46347,-3.28462 -4.92693,-2.46347 0,-1.6423 1.64231,-1.64231 -3.28461,0 z"
       id="path30"
       inkscape:connector-curvature="0" />
    <path
       style="fill:#9a9a9a;fill-opacity:1;stroke:none"
       d="m 289.32347,351.95921 0.54689,0.27425 -0.54689,-0.27425 z"
       id="path4234"
       inkscape:connector-curvature="0" />
    <path
       style="fill:#9a9a9a;fill-opacity:1;stroke:none"
       d="m 498.99126,357.43384 0,2.46346 0.82114,0 0,-0.82116 0,-0.82114 -0.82114,-0.82116 z"
       id="path4232"
       inkscape:connector-curvature="0" />
    <path
       style="fill:#9a9a9a;fill-opacity:1;stroke:none"
       d="m 304.83498,414.60977 -2.46346,3.28461 -4.10577,-1.6423 -1.64231,3.28462 -2.46346,0.82115 0,3.28462 -4.92693,0 -2.46346,2.46346 -5.74808,0.82115 0,3.28462 0,0.82115 0,0.82116 0,0.82116 0,3.28461 -1.64231,0 0,-1.64231 c 0,-2.99228 0.99934,-6.56923 -2.46346,-7.39039 l 0.82115,2.46347 0,6.56923 0.82116,0 0,6.56923 -2.46347,1.64231 -1.64231,3.28462 -0.82115,2.46347 0,3.28461 -1.64231,2.46346 0,1.64231 0.82116,3.28462 -0.82116,0 c -0.1667,3.31418 -1.42141,5.36378 1.64231,7.39038 l -2.46347,0.82116 -0.82115,4.10577 -1.64231,0.82116 0,1.64231 -0.82115,0 -0.82116,1.6423 -0.82115,2.46347 0,2.46346 -0.82115,2.46346 -1.64231,1.64231 0,4.10577 -0.82116,2.46346 -1.6423,0.82116 0,2.46347 -1.64231,3.28461 -1.64232,0.82116 0,1.6423 -2.46345,1.64231 -1.64232,4.92693 -2.46346,1.6423 0,1.64232 -1.64231,0.82115 0,1.6423 -2.46346,1.64232 0,2.46346 -0.82115,0.82115 -2.46346,0.82116 -2.46347,3.28461 -1.6423,0 -0.82116,1.64232 -4.10577,0 -1.64231,1.6423 0,0.82115 -0.82116,0 0,0.82116 -0.82115,0 0,0.82116 -0.82115,0 0,0.82115 -0.82116,0 0,0.82115 -0.82115,0 0,0.82115 -1.64231,1.64232 -1.64231,0 -0.82116,1.64231 -1.6423,0 -0.82115,0.82115 -0.82116,1.64231 -0.82116,0.82115 -4.10577,0 0,0.82116 -3.28461,0 -1.64231,-2.46347 -0.82115,0 -1.64231,1.64231 0,1.64231 -0.82116,0.82115 -1.6423,1.64232 -0.82116,0 0,0.82115 -0.82115,0 0,0.82115 -0.82116,0 0,0.82115 -0.82116,0 -1.6423,1.64232 0,1.6423 -0.82116,0.82116 -2.46345,0.82115 -4.10579,4.10577 -3.28461,0 -0.82116,2.46346 -4.10577,3.28463 0,2.46346 -0.82114,0.82115 -2.46347,0.82116 0,0.82114 -1.64231,0 -1.64231,1.64232 -5.74808,0 -1.6423,-2.46346 -4.10577,-0.82116 -1.64232,1.6423 -3.28461,-0.82114 -0.82116,0 -1.64231,0.82114 -4.92692,0 -0.82115,1.64232 -0.82116,0 -4.10577,0 -4.10577,1.64231 0,5.74807 0.82115,0 0,3.28463 0.82116,0 0,4.10577 7.39039,1.6423 1.6423,4.10577 -0.82115,2.46347 1.64231,1.6423 1.64231,0 0.82115,-1.6423 7.39039,0 4.10577,1.6423 0,4.10578 2.46346,-2.46346 2.46347,0 1.6423,2.46346 3.28462,-0.82116 4.10578,-0.82115 1.6423,0 1.64231,2.46346 1.6423,0 0.82116,1.64231 0.82116,0 1.64231,-2.46346 4.10577,0 1.6423,1.64231 3.28463,-0.82116 2.46346,2.46346 4.10577,-0.82115 2.46346,0.82115 1.64231,2.46347 1.64231,0 2.46346,-4.92693 4.92693,1.64231 1.6423,-4.92692 5.74808,0.82115 -0.82115,3.28462 2.46346,0.82115 4.92692,0 2.46347,-1.64231 0.82116,-2.46346 1.6423,0 0.82116,-0.82115 0.82115,-2.46347 0.82116,-0.82115 0.82114,-0.82115 4.10579,0.82115 3.28461,-1.64231 1.6423,-3.28462 0,-4.10577 2.46347,-2.46347 6.56923,-1.6423 3.28462,0.82116 4.10577,-4.10577 3.28462,0 0.82115,-2.46347 4.10578,0.82115 3.28461,2.46346 0.82116,2.46347 4.92692,-1.64231 0,-3.28462 4.10577,0 0.82116,-2.46345 2.46346,-2.46347 0.82115,-0.82116 1.64231,0 3.28462,-4.10577 0.82115,2.46347 1.64232,1.6423 3.28461,1.64231 2.46346,0 0.82116,-0.82115 1.64231,-1.64232 0,-0.82114 0.82116,0 0,-0.82116 2.46345,-2.46347 3.28462,0 3.28461,1.64232 0.82116,2.46345 3.28462,2.46347 1.64231,0 3.28461,1.64232 3.28462,4.10577 1.64231,-3.28463 0.82116,-3.28461 0.82115,-0.82116 1.6423,0 2.46347,-1.6423 -0.82115,-2.46347 0,-4.92693 -1.64232,-0.82114 0,-0.82116 0,-3.28462 0,-0.82115 0,-0.82116 0,-0.82115 0.82116,-4.10578 0,-1.6423 -0.82116,-0.82115 0.82116,-4.10578 0,-0.82115 0.82116,-4.92693 0,-2.46346 -1.64232,-0.82115 0,-2.46347 0,-4.92692 1.64232,-4.10577 2.46346,-2.46347 4.10577,-0.82116 -4.10577,-3.28461 0.82115,-7.39039 -2.46346,-0.82115 -1.64231,-4.10577 1.64231,-1.64232 0.82115,-0.82114 1.64231,0 0,-1.64232 2.46346,-0.82115 1.64231,-3.28462 5.74809,0 3.28461,-1.64231 -0.82115,-3.28461 -1.64232,-1.64231 -4.92691,-0.82115 0.82114,-2.46347 -1.6423,-1.6423 -1.64231,-4.92693 0.82115,-2.46346 0,-0.82116 -0.82115,-4.10577 -4.10577,-1.64231 0,-3.28462 -1.64231,-1.64231 -1.64231,0 -0.82116,-1.6423 -1.6423,0 -0.82115,-0.82116 -0.82116,-0.82115 -0.82116,-0.82116 0,-4.10577 1.64232,-3.28461 -1.64232,-3.28462 1.64232,-1.64231 4.10577,0 0.82115,-0.82116 0,-1.6423 1.64231,-7.39039 -2.46346,2.46346 -3.28462,0 0,4.10577 -3.28462,0 -2.46346,0.82116 -4.92693,3.28461 -2.46346,-1.64231 -0.82115,-0.82114 0,-2.46347 -2.46346,-2.46346 -0.82116,-2.46347 0,-2.46346 -0.82115,0 0,-3.28461 1.64231,-2.46347 0,-1.64231 -0.82116,-0.82115 0,-6.56923 -3.28461,-2.46347 -2.46347,0.82116 -9.0327,-0.82116 z"
       id="path4230"
       inkscape:connector-curvature="0" />
    <path
       style="fill:#9a9a9a;fill-opacity:1;stroke:none"
       d="m 441.14659,449.09825 -4.10577,1.6423 -0.82115,2.46347 -0.82116,0.82116 -2.46346,1.6423 -3.28461,0 -5.74809,4.10577 -0.82115,-2.46346 -3.28462,-0.82115 -4.92693,0 0,3.28461 -0.82115,0.82116 -3.28462,0 -0.82115,4.10577 -1.64231,3.28461 -2.46346,2.46347 -3.28462,0.82116 -0.82115,1.6423 -0.82116,0.82116 -2.46346,0.82115 -4.92693,0 -1.64231,-4.10577 -0.82115,-0.82115 -1.64231,-0.82116 -4.10577,0.82116 -0.82116,3.28461 -3.28461,0.82116 -2.46346,3.28461 -0.82116,4.10577 -4.10577,0 1.64231,4.92693 -4.92692,0 -6.56924,-3.28461 -2.46346,1.6423 -1.64231,2.46347 0.82115,3.28461 -3.28461,0 -2.46347,2.46346 -7.39039,0.82116 -0.82115,2.46347 -4.10577,4.92691 3.28461,1.64232 -0.82115,6.56924 2.46346,0.82114 0.82116,0.82116 1.6423,3.28461 4.92693,0 4.10577,1.64232 1.64231,4.92692 3.28462,0.82116 0.82115,2.46346 4.92693,1.64231 2.46346,-1.64231 0,-4.10577 2.46347,-4.10577 2.46346,-0.82116 0.82115,-1.6423 2.46346,-0.82116 0,-1.64231 5.74809,-2.46346 1.6423,3.28462 2.46347,0.82115 2.46346,2.46346 0.82115,5.74808 4.10577,0 1.64232,1.64231 0.82115,0.82115 0,1.64232 2.46346,0.82115 1.64231,4.10577 0,5.74808 -0.82115,4.10577 0,6.56924 -2.46347,3.28461 5.74808,0.82116 0.82116,0.82115 0,1.64231 2.46346,0.82115 1.64231,3.28462 0.82116,0 0.82114,-1.6423 2.46347,0.82114 3.28462,0 0.82115,2.46347 2.46346,1.6423 -0.82116,5.74809 0.82116,0 0,3.28461 1.64231,1.64231 0,8.21155 3.28462,0.82115 1.64231,2.46346 4.10577,0 0.82116,4.10577 4.10577,3.28462 1.6423,7.39039 4.10577,0 0,0.82115 4.92693,0.82116 2.46346,-1.64231 0.82116,-1.64231 2.46346,-0.82115 0,-3.28462 1.64231,-1.64231 4.10577,-0.82115 -0.82116,-2.46347 1.64231,-1.6423 4.92693,0 3.28462,-1.64231 0.82115,-4.10577 -0.82115,-4.10577 0.82115,-0.82116 3.28462,0 -0.82116,-4.10577 -0.82114,-0.82116 -4.92693,0 -1.64231,-2.46346 0,-1.64231 1.64231,-2.46346 3.28461,-1.64231 4.10577,0 3.28462,-1.6423 2.46347,-3.28463 -4.92693,2.46347 -4.10577,-1.64231 -1.64231,-1.6423 0,-3.28463 2.46347,-0.82115 0.82114,-2.46346 1.64231,0 0.82116,-0.82116 -0.82116,-8.21154 2.46346,-0.82115 2.46347,-2.46347 0,-3.28461 0.82116,0 -0.82116,-4.92693 2.46346,-1.64231 4.10577,0 0,-0.82115 -1.6423,-0.82115 3.28461,-4.92693 3.28462,0 1.64231,-1.64231 3.28462,0 0.82115,0 0.82115,0 0.82115,0 4.92693,-2.46346 -10.675,-1.64232 0,-4.92691 3.28462,-3.28463 -1.64232,-3.28461 0,-2.46346 1.64232,-4.10577 4.10577,0 2.46346,-1.64232 0.82115,-0.82115 0.82116,-4.92693 -3.28462,-0.82115 -1.64231,1.64231 -3.28461,-0.82116 -1.64232,1.64231 -5.74807,0.82116 -1.64231,0 -4.92693,-1.64231 -0.82116,-2.46346 -2.46345,-0.82116 -0.82116,-1.64231 -1.6423,0 -0.82116,-0.82115 0,-1.64231 -2.46347,-2.46346 -2.46346,0 -0.82115,-0.82115 -0.82116,-2.46347 -2.46346,-0.82115 -3.28461,0 -0.82116,-0.82116 0,-3.28461 -3.28461,-3.28463 -2.46347,0 -0.82116,-0.82114 -0.82115,-1.64231 -0.82115,-0.82116 -2.46347,0 -0.82115,-0.82116 -0.82115,-0.82114 -0.82116,-0.82116 0,-1.64231 -1.64231,-0.82116 0,-3.28461 -1.6423,-2.46346 1.6423,-0.82116 0,-0.82115 -4.10577,-3.28462 -1.64231,0 z"
       id="path4228"
       inkscape:connector-curvature="0" />
    <path
       style="fill:#9a9a9a;fill-opacity:1;stroke:none"
       d="m 384.48694,511.50598 -4.92692,3.28461 -0.82115,2.46347 -0.82116,0.82115 -1.64231,0 -0.82115,0.82115 -0.82115,1.64231 0,4.10578 -3.28463,3.28461 -3.28461,0 -4.10577,-1.64231 -4.92693,-3.28462 -1.6423,-4.92692 -3.28463,-1.64231 -7.39038,0 -4.10577,2.46346 -0.82116,2.46347 1.64231,9.03269 0,1.64231 -2.46346,1.64231 0.82115,2.46346 0,2.46347 0,0.82115 -0.82115,0 0.82115,3.28462 0,2.46346 -0.82115,0 0,8.21154 0.82115,0 0,6.56923 1.64231,1.64232 0,1.64231 -2.46346,1.6423 0,0.82116 1.64231,2.46347 5.74808,1.6423 0.82116,5.74808 -2.46347,4.10577 3.28461,0.82116 3.28463,3.28461 5.74807,0.82116 -2.46346,5.74807 3.28462,1.64232 0,2.46346 3.28461,4.10577 -3.28461,2.46347 0,1.6423 -0.82116,0.82115 -1.6423,0.82116 -0.82116,0.82116 -1.64231,3.28461 0,3.28462 -1.6423,2.46345 -1.64232,0.82116 -0.82115,0.82116 0,2.46347 -1.6423,0.82114 0.82114,2.46347 0,4.10577 2.46347,5.74808 -4.92693,1.64231 0.82116,4.92693 -1.64231,1.6423 0,2.46347 0,0.82115 2.46347,1.64231 -0.82116,2.46346 0,2.46346 0.82116,2.46347 -2.46347,2.46346 -2.46346,6.56923 -3.28462,2.46347 -2.46347,0.82116 -2.46345,2.46345 0,3.28462 -1.64232,1.64231 0.82116,4.10577 -1.64231,3.28462 -4.10577,4.10577 0,2.46347 0.82115,1.6423 1.64232,0 0.82115,2.46347 2.46346,0.82114 0,3.28463 1.64231,-1.64231 2.46346,0 1.64231,1.64231 1.64231,-3.28463 3.28461,-2.46345 0.82116,0 2.46347,2.46345 0.82114,-2.46345 3.28463,0 1.6423,-1.64232 6.56924,0 3.28461,1.64232 1.64232,2.46345 5.74807,0 0.82116,0.82116 0,3.28462 0.82115,0.82115 4.92693,0 2.46346,1.64231 0,0.82116 2.46346,0.82115 3.28462,-1.64231 4.10577,5.74808 4.10578,0.82115 2.46345,-3.28461 1.64232,-4.92693 2.46346,-0.82115 4.10577,0 0,0.82115 4.92692,0 1.64232,-2.46346 0,-1.64231 3.28461,-4.10577 3.28462,0 0,-2.46346 0.82115,0 6.56923,0 0.82116,-1.64231 0.82115,0 4.10578,0 0.82115,2.46347 1.6423,2.46346 4.92693,-2.46346 4.92693,0 1.64231,-3.28463 3.28462,0 0.82115,0 0.82115,0 0.82116,0 3.28461,0 0,-0.82114 2.46347,0 5.74807,0 2.46347,1.6423 4.92693,0 0,-0.82116 3.28461,0 0.82116,-7.39038 3.28462,0 1.64231,-1.64232 -1.64231,-3.28461 -4.10578,-2.46346 0,-2.46347 0.82116,-0.82114 2.46346,-0.82116 3.28461,-3.28462 -0.82114,-5.74808 1.6423,-1.64231 4.10577,0 0.82116,-4.92693 -1.64232,-3.28461 -2.46345,-3.28462 -0.82116,-0.82116 -2.46346,-0.82115 -1.64231,-2.46346 0,-6.56923 -1.6423,-2.46347 1.6423,-2.46346 -2.46346,-2.46347 2.46346,-0.82114 0.82116,-2.46347 1.64231,-0.82116 1.6423,-3.28461 -2.46346,-1.64232 -1.64231,-3.28461 0,-3.28462 -3.28462,-3.28461 0,-0.82116 0.82116,-1.64231 0.82116,0 0.82114,-1.6423 -1.6423,-4.92693 0.82116,-2.46346 -2.46347,-0.82115 -0.82116,-0.82116 0,-1.64231 -2.46346,-3.28462 -3.28461,1.64232 -4.10577,-0.82116 -0.82116,5.74808 -4.92693,0.82115 0,3.28462 -0.82115,0.82115 -3.28462,0 -2.46346,3.28463 -4.10577,0 0,-0.82116 -4.92693,0.82116 -0.82115,0 -2.46346,-2.46347 0,-2.46346 -1.64231,-0.82116 -0.82116,-4.92693 -1.6423,-2.46345 -2.46347,-2.46347 -3.28462,-0.82115 -1.64231,-2.46347 -4.92693,-1.6423 -0.82114,-2.46347 0,-4.10577 0.82114,0 0,-3.28462 -1.6423,-0.82115 0,-3.28462 -0.82115,0 -1.64232,-8.21154 -4.10577,1.6423 -4.10577,-1.6423 -0.82115,-2.46347 -2.46346,-0.82114 -0.82116,-2.46347 -5.74807,-1.64231 0,-6.56924 2.46346,-0.82115 -1.64231,-7.39039 1.64231,0 0,-1.6423 0,-2.46347 0,-0.82116 -0.82116,0 0,-3.28461 -1.6423,-1.64231 -0.82116,0 0,-0.82115 -0.82116,0 -1.6423,-2.46347 -4.92693,0 0,-4.10577 -0.82115,0 0,-3.28461 -4.10577,-1.64232 -1.64232,-2.46345 z"
       id="path4216"
       inkscape:connector-curvature="0" />
    <path
       style="fill:#9a9a9a;fill-opacity:1;stroke:none"
       d="m 316.33115,562.41754 -3.28463,2.46346 -0.82114,2.46347 -0.82116,0.82116 -1.64231,0 0,0.82114 -3.28462,0.82116 -1.64231,-2.46346 -3.28462,0 -0.82115,-2.46347 -2.46346,2.46347 -1.64231,0 -0.82116,0.82116 -0.82115,2.46345 -1.64231,2.46346 -4.10577,0 0,3.28463 -3.28461,1.6423 -4.10578,0 -1.64231,-1.6423 0,-0.82116 -0.82115,0 0,-0.82115 -1.64231,-1.64232 -2.46347,0 -0.82115,1.64232 -4.92692,1.64231 -0.82116,1.6423 -4.92692,2.46347 -2.46346,0 -0.82116,-1.64231 -1.64231,0 -1.6423,1.64231 0,0.82115 1.6423,2.46346 -3.28461,0.82116 -0.82116,4.10577 -3.28462,2.46346 -5.74808,0 -0.82116,2.46346 -1.6423,1.64231 -0.82115,0.82116 -1.64232,2.46346 -3.28461,0 -0.82116,0 -0.82114,0 -0.82116,0 -0.82116,0 -0.82115,0 -0.82116,0 -0.82115,0 -5.74808,-1.64231 -3.28461,3.28462 -3.28462,-0.82116 -3.28462,3.28462 -4.92692,0 0,-2.46346 -0.82116,0 -5.74808,0.82116 -1.6423,-2.46347 -4.10577,0 0,-0.82116 -4.10579,0 -1.6423,2.46347 -3.28461,0 -2.46347,-1.64231 -0.82116,-2.46346 -1.6423,1.6423 -2.46347,-0.82115 -7.39038,0 0,5.74808 2.46346,2.46347 1.64231,0 1.64231,1.6423 0.82115,4.92693 0.82115,0.82115 1.64231,0.82116 3.28462,0 0.82115,0.82114 0,1.64232 0,8.21154 -1.64231,2.46347 -4.10577,0 0,0.82114 -3.28461,0 -1.64231,1.64232 -3.28462,0 -2.46346,2.46346 0,3.28462 -1.64231,1.6423 -8.21154,-0.82115 -2.46346,1.64231 -0.82116,2.46346 -0.82115,0.82115 -0.82116,0.82116 -3.28462,0 -4.10577,-3.28461 -3.28461,1.6423 -2.46346,0 -1.64231,0.82115 -1.64232,1.64232 0,0.82115 -0.82114,0 0,0.82115 -1.64231,0.82116 0,2.46346 -4.10578,4.10578 0,3.28461 3.28462,-0.82116 2.46347,2.46347 0,5.74808 4.10577,0.82115 3.28461,4.10577 1.64231,0 0.82115,1.64232 0.82116,0 0.82116,-1.64232 3.28461,0 2.46346,3.28462 -0.82115,2.46347 2.46346,2.46346 1.64231,0 1.64231,0.82115 -0.82116,4.92693 -4.92692,3.28461 0,6.56923 4.10577,2.46347 -1.64231,4.10577 0.82116,3.28462 -1.64231,3.28461 8.21154,-0.82115 1.64231,0.82115 3.28461,-2.46345 2.46347,0.82115 4.10577,0 1.64231,1.6423 4.92692,0 0,0.82116 6.56923,0.82116 2.46347,0 5.74809,-4.92693 -2.46347,-0.82116 -4.10577,-3.28461 0,-3.28462 1.64231,-4.10577 -2.46347,-2.46347 -1.6423,0.82116 -0.82116,-0.82116 -0.82116,-2.46346 -2.46345,-2.46345 -1.64232,0 -4.10577,-4.10579 3.28462,0.82116 1.64231,-0.82116 0.82116,0 1.6423,1.64232 0,2.46347 0.82115,0.82114 c 2.46346,1.80162 3.72641,2.19166 6.56923,0.82116 l 1.64232,3.28461 0,5.74809 0,0.82115 3.28461,2.46346 6.56924,0 1.6423,-1.6423 0,-3.28463 0.82116,-2.46345 1.64231,-2.46346 2.46346,-1.64232 5.74809,-1.64231 1.6423,-1.6423 -0.82115,-8.21154 2.46346,-3.28463 0,-3.28461 1.64231,-3.28462 4.10577,-2.46346 8.21155,0 0,1.64231 -1.64232,0 -4.92692,0 -2.46346,0.82115 -1.64232,1.64232 0,0.82114 -0.82115,0 0,0.82116 -1.6423,0.82115 0.82115,4.10578 -1.64231,2.46345 0,6.56924 -2.46346,4.92693 -3.28462,0 -3.28462,3.28462 0,3.28461 -1.6423,2.46347 0,7.39039 4.10577,3.28461 7.39039,0 4.10577,-2.46346 -0.82116,2.46346 -4.10577,3.28462 3.28461,0 -2.46345,4.10577 -2.46347,-0.82116 -3.28462,-0.82115 -2.46346,0.82115 -3.28461,-2.46346 0.82115,4.10577 2.46346,1.64232 0,1.6423 1.64231,0.82115 0.82115,3.28462 1.64232,1.64231 0.82115,0 0,0.82116 0.82115,0 0,0.82114 0.82115,0 0,0.82116 0.82116,0 1.64231,2.46347 4.92692,0.82116 -0.82115,-2.46347 2.46346,-0.82116 3.28462,0 0.82115,0 0.82116,0 0.82116,0 4.10577,0 1.6423,-2.46346 3.28461,0 3.28463,1.6423 0.82116,1.64232 4.10577,0 0.82114,2.46347 0.82116,0 0.82116,4.10577 4.92692,0 0,-0.82116 4.10577,0.82116 1.64231,-1.64232 4.10577,0 0.82115,-4.10577 -1.6423,-3.28461 1.6423,-1.64231 0.82116,-0.82116 1.64231,0 0,-3.28462 3.28462,-4.10577 -0.82116,-3.28461 0,-2.46347 0.82116,-2.46346 3.28461,-1.64231 0.82116,-0.82115 0,-1.64231 3.28461,-2.46346 1.64232,-5.74808 1.6423,-1.64232 4.92693,2.46347 4.92692,0 0.82116,-1.64231 3.28461,0 0,-0.82116 4.10578,1.64232 4.92692,-0.82116 0,-6.56923 -1.64231,-1.64231 -0.82116,-0.82116 -0.82114,0 -0.82116,-2.46346 4.10577,0 0.82116,-1.64231 3.28461,0 0,-0.82116 2.46346,0 5.74809,0 1.64231,2.46347 1.6423,0 1.64231,1.64232 0.82116,-2.46347 3.28462,-3.28462 0,-5.74808 1.6423,-1.6423 0,-3.28463 2.46347,-3.28461 3.28461,-0.82116 2.46346,-4.10577 2.46347,-0.82115 2.46346,-4.10577 -0.82116,-2.46347 0,-4.10577 -2.46346,-1.64231 0,-1.6423 1.64231,-0.82116 0,-3.28461 0,-0.82116 0,-0.82116 0,-0.82115 0,-4.10577 3.28462,-1.64231 -1.64231,-3.28461 0.82115,-2.46347 0,-1.6423 -0.82115,-0.82116 -0.82116,-6.56924 2.46347,0.82116 3.28461,-3.28462 0,-3.28461 0.82116,0 0,-3.28463 2.46346,-1.6423 0,-1.64231 2.46347,-3.28462 2.46346,-0.82115 -2.46346,-4.92693 -0.82116,-0.82115 -3.28461,-1.64231 0,-2.46346 1.6423,-1.64231 -4.10577,-1.64231 -1.6423,-2.46346 -4.10578,0 -1.64231,-3.28462 0.82116,-3.28461 0.82115,0 0.82115,-4.10577 -1.6423,-1.64232 -2.46347,0 -3.28462,-3.28461 -0.82115,4.10577 -1.6423,0 0,3.28462 -3.28462,1.64231 -1.64231,-1.64231 0,-0.82116 -0.82116,0 0,-0.82116 -0.82115,0 0,-0.82114 -0.82115,0 0,-0.82116 -2.46347,-2.46347 -2.46346,0 -0.82115,-0.82114 -3.28462,-4.10579 -1.64231,0 -1.6423,-1.6423 z"
       id="path4212"
       inkscape:connector-curvature="0" />
    <path
       style="fill:#9a9a9a;fill-opacity:1;stroke:none"
       d="m 134.85605,573.9137 0,4.10577 -1.64231,2.46347 -0.82116,0 -0.82114,4.10577 -2.46347,0.82115 -0.82116,0.82115 0,1.64232 -1.6423,1.6423 -0.82116,0 0,0.82115 -0.82115,0 -1.64232,2.46347 -4.92691,0 -2.46346,1.64231 -0.82116,0.82115 -0.82116,0.82116 0,5.74807 4.10578,4.10577 -3.28462,-0.82114 -2.46347,0.82114 -4.10577,-0.82114 0,0.82114 -5.74807,0 -2.46347,-4.92691 -0.821163,0 0,4.92691 -1.6423,2.46347 -0.82116,0.82116 -2.46346,1.6423 -3.28462,0 -3.28461,1.64231 -0.82116,2.46346 -6.56923,-3.28461 1.64231,-5.74809 -2.46347,-1.6423 -4.105769,1.6423 -3.284611,-2.46346 -4.92693,-1.64231 -0.821155,0 -3.284617,4.10577 0,0.82116 2.463463,1.64231 0,3.28462 -2.463463,1.64231 0.821155,2.46346 -0.821155,2.46347 0,1.6423 0.821155,3.28461 -4.105772,0.82116 -0.821154,2.46347 -8.211543,0 -1.642309,4.92692 -4.926925,-0.82115 -4.105771,0 -2.463464,4.92692 -4.105771,1.64231 -0.821154,1.64231 -1.642309,0 -0.821154,1.6423 -1.642308,0 -0.821155,1.64232 -2.463462,1.6423 -2.463463,0.82116 -1.642309,-0.82116 -4.105772,1.64231 2.463464,1.64231 0,3.28462 -3.284618,2.46346 0,5.74808 4.105772,-0.82115 0,-1.64231 1.642309,0 4.105771,0 0,-0.82115 4.105771,0.82115 0.821154,0 7.390388,0.82115 0,-1.6423 2.463464,0 2.463463,3.28461 3.284617,0.82116 6.569234,0 2.463462,4.10577 0.821155,2.46346 0,3.28461 0.821154,0 1.642309,4.10577 0,1.64232 0.821154,3.28461 0,1.64231 -0.821154,0.82116 0,5.74807 0.821154,0 0,3.28463 -0.821154,2.46346 -2.463463,2.46346 -4.926926,0 0,-0.82115 -4.926925,0 -1.642309,1.6423 0,0.82116 -0.821154,0 0,0.82115 -4.926925,2.46346 -0.821156,4.92693 -1.642308,1.64231 -6.569234,0 1.642308,2.46346 4.926926,0 1.642308,1.64231 0.821156,0.82115 0,1.64231 2.463462,0.82116 c 0,3.40779 -0.317787,6.19478 3.284617,7.39039 l 0.821154,-4.10578 -3.284616,-3.28461 0,-2.46347 3.284616,-4.10577 0.821155,3.28462 1.642308,1.64231 2.463463,-1.64231 4.926925,0.82115 0.821155,-6.56923 4.926926,-2.46346 -1.642309,4.10577 0.821155,4.92692 2.463462,0.82116 0,1.64231 0.821155,0.82116 2.463462,-0.82116 5.748085,-1.64231 4.10577,0.82115 2.46346,1.64232 0,0.82114 1.64231,0.82116 4.10577,0 0.82116,-1.6423 0.82115,0 4.10577,0 0,-4.92693 3.28462,4.10577 0.82115,0.82116 1.64231,0.82114 4.926923,-1.6423 1.64232,-2.46347 0,-4.10577 -3.284633,-3.28462 0.821163,-4.10577 -2.463463,-4.92692 -5.74808,0 -1.64231,-1.64231 1.64231,-4.92692 -4.10577,-4.92693 1.64231,1.64231 2.46346,0 1.64231,1.6423 -0.82116,5.74809 3.28462,0.82115 1.64231,-1.64231 2.463463,-3.28461 0.82115,3.28461 3.28462,0 2.46347,-1.6423 1.6423,-1.64231 0,-0.82116 0.82116,0 0,-0.82116 3.28461,-2.46346 2.46347,0.82116 0.82116,0 4.10576,-0.82116 -3.28462,3.28462 -3.28461,-0.82116 -2.46346,1.64232 -2.46347,4.10577 -0.82115,0.82115 -2.46346,0.82116 -2.46346,4.92692 0,4.10577 1.6423,1.64231 3.28462,0.82116 -2.46346,4.10577 4.92692,0 0,-0.82116 4.10577,0 3.28462,-1.64231 -0.82116,2.46347 -4.92691,2.46346 1.6423,1.64231 -0.82116,2.46346 3.28463,3.28461 -4.10577,0.82116 -2.46347,-5.74807 -5.74808,0 -2.46347,0.82114 -1.642313,3.28463 3.284633,2.46346 -4.926933,0 -4.10577,-2.46346 -5.74808,2.46346 1.64231,2.46345 6.56923,0 1.64231,2.46347 -3.28462,2.46346 -2.46346,-0.82114 -5.74808,1.6423 -3.28462,-0.82116 0,-4.10577 -1.6423,-1.6423 -3.284624,0.82114 -2.463465,-2.46345 -4.926924,0 1.642313,2.46345 0,2.46347 -0.821159,1.64232 -5.74808,0 -4.105771,-2.46347 -0.821154,-2.46346 -1.642309,1.6423 -3.284618,0 2.463464,3.28463 2.463463,0.82114 2.463462,0 0,0.82116 3.284617,0 1.642309,1.64231 0.821154,4.10577 0.821154,0 0.821155,2.46346 0,4.92693 -2.463463,0.82115 0,0.82116 4.105776,0.82115 3.284611,2.46346 2.463465,0.82116 8.211544,0 2.46346,1.6423 0,0.82116 1.64231,0 3.28462,2.46346 0.82115,-4.92692 4.10578,0 0.82114,-2.46347 0,-3.28461 7.390403,-3.28462 1.6423,-4.10577 4.10577,0.82116 0.82116,0 3.28461,-0.82116 0,0.82116 4.10577,0 1.64232,2.46346 2.46346,0 0.82115,-0.82116 0,-0.82116 0.82116,-0.82114 1.6423,0 0.82116,-2.46347 3.28461,0 0.82116,0 0.82115,0 0.82116,0 3.28462,0 0.82115,-4.10577 2.46346,-0.82116 0,-4.10577 0.82116,0 1.64231,-4.10577 -1.64231,-4.10577 0,-4.92693 1.64231,-2.46346 2.46346,-2.46346 6.56923,-1.64231 3.28462,-4.10577 0.82115,-6.56923 -2.46346,-0.82116 -0.82116,-0.82115 -0.82115,-0.82116 0,-2.46346 1.64231,-0.82115 -1.64231,-5.74809 2.46347,-0.82114 0.82115,-1.64232 2.46346,-3.28461 -5.74808,-4.92693 -4.10577,0 -2.46346,-2.46347 -0.82116,3.28463 -6.56923,-0.82116 -1.64231,0 -2.46346,1.6423 -0.82116,-2.46345 -2.46345,0.82115 -7.3904,0 0.82116,-7.39038 5.74808,-2.46347 0.82116,3.28461 2.46345,-2.46346 3.28462,-0.82115 -0.82116,-5.74808 -6.56923,0 1.64232,-2.46347 -0.82116,-2.46345 2.46346,-1.64232 0.82115,-4.10577 2.46346,-0.82115 0.82116,-3.28462 2.46347,-0.82116 0.82114,-2.46345 5.74809,-0.82116 3.28461,-4.10577 0.82116,2.46346 5.74808,3.28462 0.82115,-3.28462 3.28462,-0.82115 1.64231,-3.28462 2.46346,0 0.82116,2.46346 3.28462,0 1.6423,-4.10577 1.64231,-2.46347 2.46346,-0.82114 2.46347,0 0.82115,0 0,-0.82116 3.28462,0 4.10577,-1.64231 0.82116,-2.46346 0,-5.74808 -4.10578,-0.82116 -2.46346,-2.46346 -0.82116,-4.10577 -4.10577,-1.64231 -1.6423,-2.46346 0,-5.74808 -1.64232,-2.46346 -0.82115,0 -0.82115,-4.10577 -6.56924,-0.82116 -1.64231,1.64231 -4.92692,0 -3.28462,-4.10577 0.82115,-3.28462 -4.92692,-2.46346 -2.46346,0.82115 -1.64231,-1.64231 0,-5.74807 -0.82115,-0.82116 -3.28463,0 -1.6423,-2.46347 -4.10577,0.82116 z"
       id="path4210"
       inkscape:connector-curvature="0" />
    <path
       style="fill:#9a9a9a;fill-opacity:1;stroke:none"
       d="m 145.53105,575.55601 0.82116,0.82116 -0.82116,-0.82116 z"
       id="path4208"
       inkscape:connector-curvature="0" />
    <path
       style="fill:#9a9a9a;fill-opacity:1;stroke:none"
       d="m 481.38315,619.89834 -2.46346,2.46347 1.6423,3.28461 -1.6423,3.28462 1.6423,4.10577 0,4.92693 3.28463,2.46345 3.28461,1.64232 0,3.28461 2.46346,2.46346 -0.82115,2.46347 -0.82115,4.92693 -5.74808,0.82115 1.64231,4.92692 -2.46347,0.82116 -0.82116,2.46347 -0.82114,0.82114 -2.46347,0.82116 3.28461,2.46347 0.82116,0.82114 0.82116,1.64232 0,4.10577 -1.64232,1.64231 -3.28461,0 -0.82116,2.46346 -1.6423,5.74808 -3.28461,0 0,0.82116 -6.56924,0 -2.46346,-1.64232 -6.56924,0 -1.64231,1.64232 -2.46346,-0.82116 -4.92693,0 0,3.28462 -1.6423,1.64231 -3.28462,-1.64231 -3.28462,0.82115 -2.46346,3.28462 0.82115,4.92692 2.46346,4.10578 0.82116,0.82115 1.64231,0 0.82115,0.82115 0,1.64231 1.64231,0.82116 1.64231,4.92692 2.46346,0.82115 0.82116,2.46347 0.82115,0 0.82115,4.10577 -1.6423,4.10577 1.6423,0.82116 0,0.82114 -0.82115,4.92693 0,1.64231 0.82115,0.82116 0.82116,5.74807 -3.28462,2.46347 0,3.28462 2.46346,2.46346 -1.6423,9.03269 4.10577,0.82116 1.6423,1.64231 2.46347,-0.82115 4.10577,0 0.82116,-1.64232 0.82114,0 5.74809,0 2.46347,4.92693 2.46345,1.64231 1.64232,0 0.82114,0.82115 0.82116,0.82116 0.82116,0.82115 0,2.46347 -1.64232,3.28462 -4.10577,3.28461 0,6.56923 -2.46346,0.82116 -2.46347,3.28461 0.82116,4.92693 2.46347,2.46347 3.28461,0 3.28462,-1.64231 2.46347,-3.28462 2.46346,0 1.64231,-2.46347 1.6423,0 1.64231,-2.46346 4.10577,-0.82115 1.64231,-2.46346 0.82115,-0.82116 1.64232,0 1.6423,-3.28461 0,-3.28462 -1.6423,-4.10577 4.92692,4.10577 0,-3.28462 -0.82115,0 0,-6.56923 -1.64232,-0.82116 -1.6423,-4.10577 1.6423,-4.92693 4.10578,0 0,0.82116 4.10577,0 2.46347,-4.92693 3.28461,-2.46346 4.92693,-0.82115 3.28461,-4.10577 -3.28461,6.56923 -4.92693,0.82115 -1.64231,1.64231 0,1.64231 -0.82115,0.82115 -2.46347,2.46347 -2.46346,0.82115 -2.46346,0 -3.28462,-0.82115 0.82116,4.92692 3.28461,3.28462 0,0.82115 0,0.82116 -1.64231,0 0.82116,4.10577 1.64231,0.82115 0.82115,1.64232 0,0.82115 -0.82115,1.64231 -2.46347,1.64231 2.46347,1.6423 9.0327,-0.82115 1.6423,1.64231 4.92693,-0.82116 1.64231,-1.6423 3.28461,0 0.82116,-1.64231 3.28462,0 4.10577,-2.46346 0.82115,-1.64232 1.64232,0 0.82114,-1.6423 1.64231,0 0,-0.82115 1.64232,0 1.6423,-0.82116 1.64231,-2.46347 1.6423,0 2.46347,-2.46346 7.39039,0 4.10577,-2.46346 0.82116,-0.82115 0.82115,-2.46347 2.46346,-0.82115 2.46346,-1.64231 1.64231,-5.74808 -1.64231,-1.64231 0,-4.92692 -3.28462,-1.64232 1.64232,-3.28461 -2.46347,-1.6423 0,-3.28463 4.92693,-1.6423 -1.64231,-1.64231 0,-4.92693 -2.46347,-2.46346 0,-1.64231 1.64232,-0.82116 0,-1.6423 -1.64232,-0.82116 0,-4.10577 -0.82115,0 0,-3.28461 2.46347,-0.82116 0.82115,-0.82116 0.82115,-1.6423 0.82116,-4.10577 -2.46346,-0.82116 -1.64232,-3.28461 0.82116,-2.46347 0,-2.46346 0,-0.82115 1.64231,-4.10578 -1.64231,-4.10577 4.10577,-2.46347 0,-6.56922 -3.28461,-0.82116 -2.46347,1.64231 -1.6423,-3.28461 -1.64232,1.6423 -2.46346,-1.6423 -0.82115,0 -4.92693,1.6423 -0.82115,-2.46346 -2.46346,-0.82116 -1.64232,-4.92692 -2.46345,-0.82116 -0.82116,-4.10577 1.64231,-2.46346 -2.46347,-0.82116 -0.82114,-1.6423 -1.64232,0 -0.82115,-2.46347 -2.46346,0 0,-0.82115 -0.82116,-1.64231 0,-0.82115 -4.10577,0 -0.82115,-3.28462 -2.46346,0.82115 -2.46347,-1.6423 1.64231,-3.28462 -4.10577,-2.46347 -1.64231,3.28462 -2.46346,0 -0.82116,1.64231 -3.28461,0.82116 0,0.82115 -1.64232,0 0,0.82115 -1.6423,0 0,0.82116 -1.64231,0.82115 -2.46347,0.82116 -4.10577,0 -0.82115,-0.82116 0,-5.74808 -5.74808,0 -1.64231,-1.6423 -0.82115,-7.39039 -1.64231,0 -0.82116,-3.28463 -2.46346,-0.82114 -0.82115,-2.46347 -0.82116,0 -0.82116,-0.82116 0,-1.6423 -3.28461,-1.64231 z"
       id="path34"
       inkscape:connector-curvature="0" />
    <path
       style="fill:#9a9a9a;fill-opacity:1;stroke:none"
       d="m 132.4782,667.34814 0,0.82115 4.10577,-0.82115 0.82115,2.46346 4.92693,1.64232 0,-0.82116 -2.46347,0 -0.82114,-0.82116 -0.82116,-4.10577 z m -5.74809,-0.82115 -0.82114,3.28461 4.92692,-0.82115 0,-0.82116 z m 15.05423,0.5477 0.27426,0.54689 z m 42.42658,12.59077 0.82115,0.82114 z m 131.38469,0.82114 0,0.82116 -4.92693,0.82116 1.6423,2.46347 0,3.28461 0,0.82116 0,0.82114 0,0.82116 -0.82116,4.92693 -4.92691,0 0,0.82115 -3.28463,0 -0.82114,-2.46347 -4.10578,2.46347 -8.21154,0 -2.46347,-2.46347 0,3.28463 -1.6423,2.46346 -3.28462,2.46346 -0.82115,4.10577 -0.82116,0.82115 -2.46346,0.82116 0.82115,9.0327 -1.6423,2.46346 -2.46347,1.64231 -2.46346,4.92693 0,7.39038 4.10577,0 0,1.64232 -3.28461,0.82114 -1.64231,0 -2.46347,-0.82114 -4.10577,1.6423 0.82115,2.46347 -5.74807,0.82114 -3.28463,1.64232 -3.28461,3.28461 -2.46346,3.28463 -0.82116,-2.46347 -0.82115,0 -1.64231,3.28461 -4.10578,-5.74807 0,4.10577 -3.28461,-0.82116 0,-0.82115 -2.46346,-0.82116 -0.82116,2.46347 -1.64231,-1.64231 0,-2.46346 1.64231,-4.10577 -0.82115,0 -0.82116,1.6423 0,1.64231 -0.82115,0 0,1.6423 -0.82115,0.82116 -1.64231,0 -0.82116,0.82116 0,1.64231 -1.6423,2.46346 -4.92693,0 1.64231,4.10577 0.82115,2.46347 0,2.46346 0.82116,0 -0.82116,7.39038 3.28462,1.64231 1.64231,0 1.64231,2.46346 1.6423,0 0.82116,1.64232 1.64231,0 0.82116,1.6423 4.10577,0 0.82114,-2.46346 4.10578,-0.82116 1.64231,0 4.10577,1.64232 -0.82116,-4.92693 3.28463,-3.28462 4.92691,0 4.10578,-2.46346 0.82115,3.28462 3.28462,1.6423 4.10578,0.82116 1.6423,-2.46346 2.46347,-0.82116 4.92692,1.64231 1.64231,-1.64231 3.28461,0.82116 -1.6423,-2.46347 0,-4.10577 0.82115,-2.46346 0.82115,0 0,-2.46347 2.46347,-2.46346 1.6423,0 0.82116,-1.64231 4.10577,-1.6423 4.10577,0 0,-8.21154 3.28462,-4.10577 -1.6423,3.28461 -0.82116,3.28462 0,2.46345 0.82116,0 0,2.46347 0.82114,2.46346 4.10577,-0.82114 1.64232,-2.46347 4.92692,0.82115 0,-0.82115 6.56923,-0.82116 0,-3.28461 0.82116,0 0,-5.74809 1.64231,-3.28461 3.28462,0 0.82115,-1.64231 1.64231,0 3.28462,-2.46346 -0.82116,2.46346 -2.46346,0.82115 -2.46346,3.28463 -1.64232,0 -2.46345,2.46345 0.82115,4.10578 1.6423,4.10577 -2.46345,0.82115 -0.82116,0.82116 -0.82116,0.82116 0.82116,3.28461 0.82116,0.82116 1.64231,0 1.6423,1.6423 0.82116,0.82116 0,1.64231 1.64231,1.6423 2.46346,-0.82116 -0.82116,4.10578 1.64231,2.46346 1.64231,0.82116 0.82115,0.82115 1.64232,5.74808 1.6423,0.82116 1.64231,3.28461 0,4.10577 0.82116,0 0,3.28462 1.6423,1.64231 0,2.46346 0.82116,1.64231 3.28461,2.46346 0.82116,4.10577 3.28461,1.64231 4.92693,0 1.64231,-1.64231 4.10577,0 1.64231,2.46347 4.92692,0.82116 -2.46346,4.9269 2.46346,0.82115 0.82116,1.64232 1.64231,0 0.82116,0.82114 0,1.64232 0.82114,0.82115 1.64232,0 0.82115,0.82116 0.82116,3.28461 1.6423,0.82116 0,1.6423 0.82116,0 0,1.64231 0.82115,1.64232 1.64231,0.82114 0.82115,2.46347 2.46347,1.6423 8.21154,0 0,0.82116 4.10577,0 0,0.82116 4.10578,0 0.82115,1.64231 3.28462,0 0,0.82115 2.46346,0 5.74808,0.82115 3.28461,-0.82115 2.46346,0.82115 5.74809,0 0,0.82116 3.28461,0 3.28463,-1.64231 0.82114,-2.46346 3.28463,1.64231 1.6423,0 0.82116,-1.64231 1.64231,0 0.82114,1.64231 0.82116,0 0.82116,-1.64231 2.46346,-0.82116 3.28462,0 2.46346,-2.46346 3.28461,0 1.64232,1.6423 2.46346,0 3.28461,-1.6423 0,-3.28461 0,-0.82116 0,-0.82116 0,-0.82115 0,-3.28462 0.82116,0 0,-4.10577 -3.28462,-0.82115 -2.46346,-2.46346 -0.82115,-3.2846 -1.64232,-0.82116 0,-1.64231 -1.6423,-0.82116 -0.82115,-2.46346 3.28461,2.46346 0,1.64231 1.64231,0.82116 0,1.64229 0.82115,0.82115 3.28462,2.46346 -0.82115,-9.03267 2.46346,1.6423 4.10577,4.92691 2.46347,-3.2846 0,-2.46345 1.6423,-0.82116 0,-4.10577 -3.28462,-3.28463 0,-8.21154 2.46346,-0.82115 2.46347,-4.10577 0,-5.74808 2.46346,-0.82116 0,-3.28461 1.64231,-3.28462 -4.92692,-2.46346 0,-2.46346 -1.64232,-1.64232 -3.28461,0 -0.82116,1.64232 -0.82114,0 -4.10578,0 0,0.82115 -4.10577,0 -2.46347,-0.82115 -4.10577,-2.46346 0,-6.56924 0.82116,0 0,-3.28462 -2.46346,-2.46347 0,-4.10577 2.46346,-3.28461 0,-4.92693 -0.82116,0 0.82116,-4.10577 0,-1.6423 -0.82116,-0.82116 0.82116,-9.0327 -3.28462,-2.46346 -0.82115,-2.46347 -0.82116,0 0,-1.6423 -0.82115,-1.64231 -2.46346,-2.46346 -1.64232,0 0,-1.64231 -0.82114,-0.82116 -0.82116,0 -0.82115,-0.82115 -0.82116,-4.10578 -0.82116,0 -0.82114,-1.6423 0,-4.92692 -3.28463,-4.92693 -2.46346,0.82115 -6.56924,0 -0.82114,3.28462 -3.28463,0 -1.6423,1.64231 -1.64231,3.28462 0.82115,4.92692 -2.46345,-0.82115 -5.74809,0 -2.46346,-2.46346 -1.64231,0 -0.82116,0.82114 -1.6423,4.92693 -1.64231,4.10577 -5.74808,0 0,-0.82115 -3.28462,0 -1.6423,-1.64231 0,-1.64231 -1.64231,-1.6423 -4.92693,0.82115 -4.10577,-3.28462 -2.46346,0 -0.82116,1.64231 -0.82115,0 -1.64232,-1.64231 -0.82114,-4.10577 -2.46347,-0.82116 -3.28462,0 -2.46346,-1.6423 -0.82115,-1.64231 -1.64231,-0.82116 -3.28462,0 -1.64231,1.64232 -3.28462,0 -4.10577,3.28461 -0.82115,-2.46346 -1.64231,0 0,1.6423 -0.82115,0.82116 -2.46347,2.46347 -2.46346,-0.82116 -2.46346,0 0,0.82116 -4.10577,0 0,-4.10577 -4.10577,-2.46347 -0.82116,-0.82116 -0.82115,-3.28461 -2.46346,-3.28462 -0.82116,-0.82115 -2.46347,-1.64232 z m -123.17315,5.74809 1.6423,1.64231 z m 18.88654,0.82115 0.82116,0.82116 z m -113.319283,4.92693 0.82116,2.46346 c 1.402533,1.41157 1.825423,1.64231 0,2.46347 l 1.642303,4.10577 0.82116,0 0,-3.28463 2.46346,-4.10577 z"
       id="path46"
       inkscape:connector-curvature="0"
       sodipodi:nodetypes="ccccccccccccccccccccccccccccccccccccccccccccccccccccccccccccccccccccccccccccccccccccccccccccccccccccccccccccccccccccccccccccccccccccccccccccccccccccccccccccccccccccccccccccccccccccccccccccccccccccccccccccccccccccccccccccccccccccccccccccccccccccccccccccccccccccccccccccccccccccccccccccccccccccccccccccccccccccccccccccccccccccccccccccccccccccccccccccccccccccccccccccccccccc" />
    <path
       style="fill:#9a9a9a;fill-opacity:1;stroke:none"
       d="m 331.7499,807.36565 2.20297,2.20297 z m 110.14868,2.20297 1.10149,1.10149 z m -44.05947,27.53717 1.10149,1.10149 z"
       id="path66"
       inkscape:connector-curvature="0"
       sodipodi:nodetypes="ccccccccc" />
  </g>
</svg>
